<mxfile host="Electron" agent="Mozilla/5.0 (Macintosh; Intel Mac OS X 10_15_7) AppleWebKit/537.36 (KHTML, like Gecko) draw.io/27.0.9 Chrome/134.0.6998.205 Electron/35.4.0 Safari/537.36" version="27.0.9">
  <diagram name="Page-1" id="VFBQGTibMR35uIRP_xuw">
    <mxGraphModel dx="1426" dy="859" grid="1" gridSize="10" guides="1" tooltips="1" connect="1" arrows="1" fold="1" page="1" pageScale="1" pageWidth="827" pageHeight="1169" math="0" shadow="0">
      <root>
        <mxCell id="0" />
        <mxCell id="1" parent="0" />
        <mxCell id="eIprMEktU3eGyk0l6JH4-18" value="Private subnet" style="rounded=0;whiteSpace=wrap;html=1;labelPosition=center;verticalLabelPosition=top;align=center;verticalAlign=bottom;labelBackgroundColor=none;fillColor=#99CCFF;" vertex="1" parent="1">
          <mxGeometry x="330" y="160" width="510" height="480" as="geometry" />
        </mxCell>
        <mxCell id="eIprMEktU3eGyk0l6JH4-15" value="Storage Layer" style="rounded=1;whiteSpace=wrap;html=1;labelBorderColor=default;labelPosition=center;verticalLabelPosition=top;align=center;verticalAlign=bottom;dashed=1;fillColor=none;" vertex="1" parent="1">
          <mxGeometry x="615" y="200" width="160" height="310" as="geometry" />
        </mxCell>
        <mxCell id="eIprMEktU3eGyk0l6JH4-2" value="&lt;h1 style=&quot;margin-top: 0px;&quot;&gt;&lt;font style=&quot;font-size: 16px;&quot;&gt;Analytics Layer&lt;/font&gt;&lt;/h1&gt;" style="text;html=1;whiteSpace=wrap;overflow=hidden;rounded=0;" vertex="1" parent="1">
          <mxGeometry x="605" y="100" width="130" height="50" as="geometry" />
        </mxCell>
        <mxCell id="eIprMEktU3eGyk0l6JH4-3" value="Data Warehouse" style="shape=cylinder3;whiteSpace=wrap;html=1;boundedLbl=1;backgroundOutline=1;size=15;labelPosition=center;verticalLabelPosition=top;align=center;verticalAlign=bottom;fillStyle=auto;fillColor=light-dark(#f5f5f5, #c7bf60);fontColor=#333333;strokeColor=#666666;" vertex="1" parent="1">
          <mxGeometry x="640" y="230" width="110" height="120" as="geometry" />
        </mxCell>
        <mxCell id="eIprMEktU3eGyk0l6JH4-7" value="OLTP" style="rounded=1;whiteSpace=wrap;html=1;labelBorderColor=default;labelPosition=center;verticalLabelPosition=top;align=center;verticalAlign=bottom;dashed=1;" vertex="1" parent="1">
          <mxGeometry x="110" y="200" width="160" height="230" as="geometry" />
        </mxCell>
        <mxCell id="eIprMEktU3eGyk0l6JH4-5" value="Postgres" style="strokeWidth=2;html=1;shape=mxgraph.flowchart.database;whiteSpace=wrap;labelPosition=center;verticalLabelPosition=top;align=center;verticalAlign=bottom;" vertex="1" parent="1">
          <mxGeometry x="160" y="240" width="60" height="60" as="geometry" />
        </mxCell>
        <mxCell id="eIprMEktU3eGyk0l6JH4-4" value="Oracle" style="strokeWidth=2;html=1;shape=mxgraph.flowchart.database;whiteSpace=wrap;labelPosition=center;verticalLabelPosition=top;align=center;verticalAlign=bottom;" vertex="1" parent="1">
          <mxGeometry x="160" y="340" width="60" height="60" as="geometry" />
        </mxCell>
        <mxCell id="eIprMEktU3eGyk0l6JH4-8" value="" style="endArrow=none;html=1;rounded=0;" edge="1" parent="1">
          <mxGeometry width="50" height="50" relative="1" as="geometry">
            <mxPoint x="310" y="730" as="sourcePoint" />
            <mxPoint x="310" y="180" as="targetPoint" />
          </mxGeometry>
        </mxCell>
        <mxCell id="eIprMEktU3eGyk0l6JH4-9" value="&lt;h1 style=&quot;margin-top: 0px;&quot;&gt;&lt;font style=&quot;font-size: 16px;&quot;&gt;Source Layer&lt;/font&gt;&lt;/h1&gt;" style="text;html=1;whiteSpace=wrap;overflow=hidden;rounded=0;" vertex="1" parent="1">
          <mxGeometry x="135" y="110" width="110" height="50" as="geometry" />
        </mxCell>
        <mxCell id="eIprMEktU3eGyk0l6JH4-10" value="&lt;h1 style=&quot;margin-top: 0px;&quot;&gt;&lt;font style=&quot;font-size: 16px;&quot;&gt;Business Users&lt;/font&gt;&lt;/h1&gt;" style="text;html=1;whiteSpace=wrap;overflow=hidden;rounded=0;" vertex="1" parent="1">
          <mxGeometry x="1190" y="110" width="130" height="50" as="geometry" />
        </mxCell>
        <mxCell id="eIprMEktU3eGyk0l6JH4-11" value="" style="endArrow=none;html=1;rounded=0;" edge="1" parent="1">
          <mxGeometry width="50" height="50" relative="1" as="geometry">
            <mxPoint x="1130" y="720" as="sourcePoint" />
            <mxPoint x="1130" y="170" as="targetPoint" />
          </mxGeometry>
        </mxCell>
        <mxCell id="eIprMEktU3eGyk0l6JH4-12" value="Processing Layer" style="rounded=1;whiteSpace=wrap;html=1;labelBorderColor=default;labelPosition=center;verticalLabelPosition=top;align=center;verticalAlign=bottom;dashed=1;fillColor=none;" vertex="1" parent="1">
          <mxGeometry x="380" y="200" width="160" height="310" as="geometry" />
        </mxCell>
        <mxCell id="eIprMEktU3eGyk0l6JH4-19" value="Public subnet" style="rounded=0;whiteSpace=wrap;html=1;labelPosition=center;verticalLabelPosition=top;align=center;verticalAlign=bottom;labelBackgroundColor=none;fillColor=light-dark(#99CCFF, #89ecab);" vertex="1" parent="1">
          <mxGeometry x="880" y="160" width="200" height="480" as="geometry" />
        </mxCell>
      </root>
    </mxGraphModel>
  </diagram>
</mxfile>
